name C:\Users\u0101727\Documents\MyRepositories\upper-imu-dc\Results\main_tracking\Case_40\FLX01_angularVelocities_groundFrame.mot
datacolumns 4
datarows 129
range 3.51000000 4.79000000
endheader 
time	radius_imu_x	radius_imu_y	radius_imu_z	
          3.51000000	         -0.02165825	         -0.07384947	         -0.13255503	
          3.52000000	         -0.00224976	         -0.04179091	         -0.12487291	
          3.53000000	          0.01777183	         -0.00799519	         -0.11560437	
          3.54000000	          0.03667095	          0.02232062	         -0.10584503	
          3.55000000	          0.05278587	          0.04411059	         -0.09672807	
          3.56000000	          0.06479186	          0.05343097	         -0.08925056	
          3.57000000	          0.07190220	          0.04817507	         -0.08409830	
          3.58000000	          0.07396219	          0.02846244	         -0.08150400	
          3.59000000	          0.07142654	         -0.00336775	         -0.08117899	
          3.60000000	          0.06523432	         -0.04317229	         -0.08236046	
          3.61000000	          0.05661350	         -0.08578525	         -0.08398736	
          3.62000000	          0.04686485	         -0.12599087	         -0.08496148	
          3.63000000	          0.03717891	         -0.15940988	         -0.08440780	
          3.64000000	          0.02851839	         -0.18306861	         -0.08185662	
          3.65000000	          0.02157274	         -0.19555691	         -0.07730747	
          3.66000000	          0.01677641	         -0.19680654	         -0.07117167	
          3.67000000	          0.01436668	         -0.18764700	         -0.06413359	
          3.68000000	          0.01444272	         -0.16935560	         -0.05699753	
          3.69000000	          0.01700020	         -0.14332433	         -0.05056571	
          3.70000000	          0.02194370	         -0.11083957	         -0.04555162	
          3.71000000	          0.02909164	         -0.07296852	         -0.04252732	
          3.72000000	          0.03818098	         -0.03063502	         -0.04193234	
          3.73000000	          0.04886762	          0.01506147	         -0.04416247	
          3.74000000	          0.06071993	          0.06245119	         -0.04967478	
          3.75000000	          0.07322193	          0.10916821	         -0.05898910	
          3.76000000	          0.08581193	          0.15252753	         -0.07252082	
          3.77000000	          0.09795513	          0.19028597	         -0.09031278	
          3.78000000	          0.10920857	          0.22133326	         -0.11184626	
          3.79000000	          0.11923181	          0.24585466	         -0.13609510	
          3.80000000	          0.12773620	          0.26488140	         -0.16182138	
          3.81000000	          0.13441098	          0.27954747	         -0.18794825	
          3.82000000	          0.13888790	          0.29050238	         -0.21382417	
          3.83000000	          0.14079908	          0.29781760	         -0.23927598	
          3.84000000	          0.13992827	          0.30143142	         -0.26445978	
          3.85000000	          0.13637244	          0.30179316	         -0.28962090	
          3.86000000	          0.13059954	          0.30021609	         -0.31490506	
          3.87000000	          0.12335499	          0.29871403	         -0.34029124	
          3.88000000	          0.11546476	          0.29946216	         -0.36563091	
          3.89000000	          0.10761699	          0.30413103	         -0.39075898	
          3.90000000	          0.10018090	          0.31328571	         -0.41564193	
          3.91000000	          0.09310922	          0.32605993	         -0.44048885	
          3.92000000	          0.08597781	          0.34034440	         -0.46573305	
          3.93000000	          0.07818653	          0.35355856	         -0.49186339	
          3.94000000	          0.06926203	          0.36374535	         -0.51919173	
          3.95000000	          0.05914205	          0.37053248	         -0.54767540	
          3.96000000	          0.04833805	          0.37558583	         -0.57685912	
          3.97000000	          0.03792516	          0.38237912	         -0.60595308	
          3.98000000	          0.02935480	          0.39530597	         -0.63404707	
          3.99000000	          0.02413903	          0.41840158	         -0.66041601	
          4.00000000	          0.02349892	          0.45411305	         -0.68481049	
          4.01000000	          0.02806754	          0.50249329	         -0.70762509	
          4.02000000	          0.03770740	          0.56095777	         -0.72990743	
          4.03000000	          0.05146554	          0.62454345	         -0.75323548	
          4.04000000	          0.06766146	          0.68656310	         -0.77949017	
          4.05000000	          0.08410732	          0.73962161	         -0.81051590	
          4.06000000	          0.09847067	          0.77695682	         -0.84768017	
          4.07000000	          0.10874150	          0.79386946	         -0.89143004	
          4.08000000	          0.11368958	          0.78882083	         -0.94100264	
          4.09000000	          0.11318066	          0.76383571	         -0.99441188	
          4.10000000	          0.10826317	          0.72408375	         -1.04873989	
          4.11000000	          0.10098279	          0.67673574	         -1.10066321	
          4.12000000	          0.09394627	          0.62939506	         -1.14706361	
          4.13000000	          0.08979396	          0.58864214	         -1.18552821	
          4.14000000	          0.09085498	          0.55928466	         -1.21458028	
          4.15000000	          0.09916774	          0.54453311	         -1.23361396	
          4.16000000	          0.11677478	          0.54672868	         -1.24265727	
          4.17000000	          0.14595861	          0.56789753	         -1.24215479	
          4.18000000	          0.18908372	          0.60958523	         -1.23289712	
          4.19000000	          0.24800316	          0.67205077	         -1.21607119	
          4.20000000	          0.32331006	          0.75339936	         -1.19330302	
          4.21000000	          0.41373455	          0.84913239	         -1.16660499	
          4.22000000	          0.51575861	          0.95213630	         -1.13825090	
          4.23000000	          0.62336899	          1.05288154	         -1.11066266	
          4.24000000	          0.72801211	          1.13982542	         -1.08634489	
          4.25000000	          0.81914828	          1.20046817	         -1.06779187	
          4.26000000	          0.88584824	          1.22351775	         -1.05724495	
          4.27000000	          0.91921214	          1.20171609	         -1.05630876	
          4.28000000	          0.91445421	          1.13379903	         -1.06563607	
          4.29000000	          0.87156912	          1.02442660	         -1.08487866	
          4.30000000	          0.79486386	          0.88276871	         -1.11282681	
          4.31000000	          0.69261532	          0.72144827	         -1.14748597	
          4.32000000	          0.57735754	          0.55635890	         -1.18602403	
          4.33000000	          0.46570217	          0.40598320	         -1.22484951	
          4.34000000	          0.37613671	          0.28861607	         -1.26012347	
          4.35000000	          0.32470324	          0.21779966	         -1.28864419	
          4.36000000	          0.32032639	          0.19817486	         -1.30867355	
          4.37000000	          0.36201693	          0.22395256	         -1.32028323	
          4.38000000	          0.43925702	          0.28080630	         -1.32507460	
          4.39000000	          0.53560985	          0.35056331	         -1.32537949	
          4.40000000	          0.63454549	          0.41717323	         -1.32319931	
          4.41000000	          0.72547698	          0.47182406	         -1.31926834	
          4.42000000	          0.80712697	          0.51479670	         -1.31272318	
          4.43000000	          0.88595451	          0.55276950	         -1.30168896	
          4.44000000	          0.97019757	          0.59296120	         -1.28457705	
          4.45000000	          1.06291103	          0.63747999	         -1.26143849	
          4.46000000	          1.15773192	          0.68078283	         -1.23470092	
          4.47000000	          1.23941171	          0.71121602	         -1.20892257	
          4.48000000	          1.28905409	          0.71579830	         -1.18958476	
          4.49000000	          1.29192762	          0.68605197	         -1.18136823	
          4.50000000	          1.24396808	          0.62192730	         -1.18671667	
          4.51000000	          1.15348143	          0.53179053	         -1.20539857	
          4.52000000	          1.03777899	          0.42902260	         -1.23512552	
          4.53000000	          0.91740752	          0.32757616	         -1.27267712	
          4.54000000	          0.81072157	          0.23845449	         -1.31493256	
          4.55000000	          0.73038781	          0.16796896	         -1.35946131	
          4.56000000	          0.68274320	          0.11798611	         -1.40454662	
          4.57000000	          0.66980003	          0.08762048	         -1.44878299	
          4.58000000	          0.69167113	          0.07486408	         -1.49071671	
          4.59000000	          0.74692164	          0.07690618	         -1.52894207	
          4.60000000	          0.83087844	          0.08949188	         -1.56254281	
          4.61000000	          0.93432264	          0.10671073	         -1.59136553	
          4.62000000	          1.04476849	          0.12207330	         -1.61574784	
          4.63000000	          1.15018386	          0.13039199	         -1.63583435	
          4.64000000	          1.24259107	          0.12909148	         -1.65105328	
          4.65000000	          1.31889231	          0.11801448	         -1.66025999	
          4.66000000	          1.37887291	          0.09816029	         -1.66246037	
          4.67000000	          1.42270314	          0.07055572	         -1.65751921	
          4.68000000	          1.45003457	          0.03596700	         -1.64632797	
          4.69000000	          1.46085180	         -0.00475783	         -1.63039365	
          4.70000000	          1.45658001	         -0.05038702	         -1.61126364	
          4.71000000	          1.43986780	         -0.09947136	         -1.59026721	
          4.72000000	          1.41300038	         -0.15080372	         -1.56868867	
          4.73000000	          1.37649557	         -0.20367448	         -1.54804676	
          4.74000000	          1.32933919	         -0.25768369	         -1.53007495	
          4.75000000	          1.27063941	         -0.31235121	         -1.51633342	
          4.76000000	          1.20117068	         -0.36690720	         -1.50774085	
          4.77000000	          1.12363050	         -0.42038208	         -1.50434491	
          4.78000000	          1.04171002	         -0.47182720	         -1.50541929	
          4.79000000	          0.95889520	         -0.52045630	         -1.50976265	
